<svg width="280" height="280" viewBox="0 0 280 280" fill="none" xmlns="http://www.w3.org/2000/svg">
<path d="M65.9059 201.52C63.9993 206.507 60.6993 209 56.0059 209H14.4259C13.1059 209 11.9326 208.56 10.9059 207.68C10.0259 206.653 9.58594 205.48 9.58594 204.16L9.80594 202.84L57.7659 62.26C58.3526 60.3533 59.4526 58.6667 61.0659 57.2C62.6793 55.7333 64.8793 55 67.6659 55H128.826C131.613 55 133.813 55.7333 135.426 57.2C137.039 58.6667 138.139 60.3533 138.726 62.26L186.686 202.84L186.906 204.16C186.906 205.48 186.393 206.653 185.366 207.68C184.486 208.56 183.386 209 182.066 209H140.486C135.793 209 132.493 206.507 130.586 201.52L125.086 186.12H71.4059L65.9059 201.52ZM98.2459 97.46L82.6259 143.22H113.866L98.2459 97.46Z" fill="#F8F8F2"/>
<rect x="200" y="55" width="68" height="154" fill="#50FA7B"/>
</svg>
